<svg width="40" height="41" viewBox="0 0 40 41" fill="none" xmlns="http://www.w3.org/2000/svg">
<path fill-rule="evenodd" clip-rule="evenodd" d="M1.73333 4.77778V9.22222H24.2359C24.238 9.22007 24.2403 9.21755 24.2428 9.21466C24.2489 9.2075 24.2548 9.19926 24.2601 9.19055C24.2627 9.18627 24.2649 9.1823 24.2667 9.17876V4.77778H1.73333ZM0.492174 3.50479C0.828249 3.1601 1.27639 3 1.73333 3H24.2667C24.7236 3 25.1718 3.1601 25.5078 3.50479C25.8439 3.84949 26 4.30911 26 4.77778V9.22222C26 9.65798 25.807 10.0808 25.5472 10.3853C25.2731 10.7067 24.8341 11 24.2667 11H1.73333C1.27639 11 0.828249 10.8399 0.492174 10.4952C0.156099 10.1505 0 9.69089 0 9.22222V4.77778C0 4.30911 0.156099 3.84949 0.492174 3.50479Z" fill="#4C4E15"/>
<path fill-rule="evenodd" clip-rule="evenodd" d="M8.73333 17.5556V21.4444H31.2359C31.238 21.4426 31.2403 21.4404 31.2428 21.4378C31.2489 21.4316 31.2548 21.4244 31.2601 21.4167C31.2627 21.413 31.2649 21.4095 31.2667 21.4064V17.5556H8.73333ZM7.49217 16.4417C7.82825 16.1401 8.27639 16 8.73333 16H31.2667C31.7236 16 32.1718 16.1401 32.5078 16.4417C32.8439 16.7433 33 17.1455 33 17.5556V21.4444C33 21.8257 32.807 22.1957 32.5472 22.4622C32.2731 22.7433 31.8341 23 31.2667 23H8.73333C8.27639 23 7.82825 22.8599 7.49217 22.5583C7.1561 22.2567 7 21.8545 7 21.4444V17.5556C7 17.1455 7.1561 16.7433 7.49217 16.4417Z" fill="#4C4E15"/>
<path fill-rule="evenodd" clip-rule="evenodd" d="M14.4922 28.5048C14.8282 28.1601 15.2764 28 15.7333 28H38.2667C38.8341 28 39.2731 28.2933 39.5472 28.6147C39.807 28.9192 40 29.342 40 29.7778V34.2222C40 34.6909 39.8439 35.1505 39.5078 35.4952C39.1718 35.8399 38.7236 36 38.2667 36H15.7333C15.2764 36 14.8282 35.8399 14.4922 35.4952C14.1561 35.1505 14 34.6909 14 34.2222V29.7778C14 29.3091 14.1561 28.8495 14.4922 28.5048ZM38.2359 29.7778H15.7333V34.2222H38.2667V29.8212C38.2649 29.8177 38.2627 29.8137 38.2601 29.8094C38.2548 29.8007 38.2489 29.7925 38.2428 29.7853C38.2403 29.7824 38.238 29.7799 38.2359 29.7778Z" fill="#4C4E15"/>
<path fill-rule="evenodd" clip-rule="evenodd" d="M20 0C20.5523 0 21 0.39056 21 0.87234V40.1277C21 40.6094 20.5523 41 20 41C19.4477 41 19 40.6094 19 40.1277V0.87234C19 0.39056 19.4477 0 20 0Z" fill="#4C4E15"/>
</svg>
