<svg width="42" height="42" viewBox="0 0 42 42" fill="none" xmlns="http://www.w3.org/2000/svg">
<path fill-rule="evenodd" clip-rule="evenodd" d="M0 14.4576C0 11.9959 1.96526 10 4.38925 10H16.6288C17.1215 10 17.521 10.4057 17.521 10.9061C17.521 11.4065 17.1215 11.8122 16.6288 11.8122H4.38925C2.95075 11.8122 1.78439 12.9967 1.78439 14.4576V37.5424C1.78439 39.0035 2.95057 40.1878 4.38925 40.1878H37.6107C37.6106 40.1878 37.6107 40.1878 37.6107 40.1878C39.0493 40.1876 40.2156 39.0032 40.2156 37.5424V14.4576C40.2156 12.9968 39.0494 11.8124 37.6107 11.8122C37.6107 11.8122 37.6108 11.8122 37.6107 11.8122H33.9388C33.4461 11.8122 33.0466 11.4065 33.0466 10.9061C33.0466 10.4057 33.4461 10 33.9388 10H37.6107C40.0346 10.0002 42 11.9958 42 14.4576V37.5424C42 40.0042 40.0347 41.9998 37.6108 42H4.38925C1.96508 42 0 40.0043 0 37.5424V14.4576Z" fill="#154E2F"/>
<path fill-rule="evenodd" clip-rule="evenodd" d="M5 19.6362C5 18.1802 6.20736 17 7.69678 17H10.3752C10.8784 17 11.2863 17.3988 11.2863 17.8907C11.2863 18.3826 10.8784 18.7814 10.3752 18.7814H7.69678C7.21378 18.7814 6.82227 19.1641 6.82227 19.6362V28.3638C6.82227 28.8359 7.21378 29.2186 7.69678 29.2186H19.3032C19.7862 29.2186 20.1777 28.8359 20.1777 28.3638V24.8729C20.1777 24.381 20.5857 23.9822 21.0889 23.9822C21.5921 23.9822 22 24.381 22 24.8729V28.3638C22 29.8198 20.7926 31 19.3032 31H7.69678C6.20736 31 5 29.8198 5 28.3638V19.6362Z" fill="#154E2F"/>
<path fill-rule="evenodd" clip-rule="evenodd" d="M19.9766 24.882C19.9766 24.3949 20.3675 24 20.8496 24H23.416C24.8431 24 26 25.1688 26 26.6105V34.3893C26 35.8312 24.8431 37 23.416 37H10.584C9.15687 37 8 35.8312 8 34.3893V30.0678C8 29.5807 8.39087 29.1857 8.87303 29.1857C9.35519 29.1857 9.74606 29.5807 9.74606 30.0678V34.3893C9.74606 34.8569 10.1212 35.2359 10.584 35.2359H23.416C23.8788 35.2359 24.2539 34.8569 24.2539 34.3893V26.6105C24.2539 26.1432 23.8789 25.7641 23.416 25.7641H20.8496C20.3675 25.7641 19.9766 25.3692 19.9766 24.882Z" fill="#154E2F"/>
<path fill-rule="evenodd" clip-rule="evenodd" d="M32.632 19.0272C32.3273 19.0272 32.0461 19.2127 31.894 19.5135L31.894 19.5136C31.5659 20.1622 31.9758 20.9728 32.632 20.9728H34.3719C34.8427 20.9728 35.2242 20.5372 35.2242 20.0001C35.2242 19.4628 34.8426 19.0272 34.3719 19.0272H32.632ZM30.3561 18.4999C30.8255 17.5715 31.6932 17 32.632 17H34.3719C35.8234 17 37 18.3432 37 20.0001C37 21.6569 35.8233 23 34.3719 23H32.632C30.6088 23 29.3445 20.5002 30.356 18.5001" fill="#154E2F"/>
<path fill-rule="evenodd" clip-rule="evenodd" d="M31.7768 26.8053V34.2034C31.7768 34.501 31.8442 34.6614 31.8997 34.7499C31.9588 34.8442 32.044 34.9189 32.1562 34.9786C32.2719 35.0401 32.3984 35.0756 32.5034 35.0942C32.5538 35.1031 32.5939 35.1072 32.6178 35.1091C32.6275 35.1098 32.6342 35.1101 32.6376 35.1103H34.3705C34.6503 35.1103 34.8011 35.0386 34.8842 34.9796C34.973 34.9167 35.0432 34.8261 35.0993 34.7067C35.1572 34.5836 35.1905 34.4491 35.2081 34.3374C35.2165 34.2838 35.2203 34.2412 35.222 34.2156C35.2227 34.2054 35.223 34.1983 35.2232 34.1947V26.7966C35.2232 26.499 35.1558 26.3386 35.1003 26.2502C35.0412 26.1558 34.956 26.0811 34.8437 26.0214C34.728 25.9599 34.6015 25.9244 34.4965 25.9058C34.446 25.8969 34.406 25.8928 34.382 25.8909C34.3724 25.8902 34.3657 25.8899 34.3623 25.8897H32.6294C32.3496 25.8897 32.1988 25.9614 32.1157 26.0203C32.027 26.0832 31.9568 26.1739 31.9007 26.2933C31.8428 26.4163 31.8095 26.5509 31.7919 26.6626C31.7835 26.7162 31.7797 26.7588 31.778 26.7844C31.7773 26.7946 31.777 26.8017 31.7768 26.8053ZM36.1116 34.2034H37V26.7966C37 26.1683 36.8498 25.6343 36.5787 25.202C36.3114 24.7755 35.9614 24.503 35.6383 24.3312C35.3188 24.1613 35.01 24.081 34.7886 24.0418C34.6758 24.0218 34.5798 24.0114 34.5086 24.006C34.4728 24.0033 34.4428 24.0018 34.4196 24.001L34.3898 24.0002L34.3788 24L34.3743 24L34.3723 24L34.3714 24C34.3709 24 34.3705 24 34.3705 24.9408V24H32.6294C32.0386 24 31.5365 24.1598 31.13 24.448C30.7291 24.7324 30.4729 25.1047 30.3114 25.4482C30.1516 25.7881 30.0762 26.1165 30.0393 26.352C30.0205 26.4719 30.0107 26.574 30.0057 26.6497C30.0031 26.6878 30.0017 26.7196 30.0009 26.7443L30.0002 26.7761L30 26.7878L30 26.7925L30 26.7947L30 26.7957C30 26.7961 30 26.7966 30.8846 26.7966H30V34.2034C30 34.8316 30.1502 35.3657 30.4212 35.798C30.6885 36.2245 31.0385 36.497 31.3615 36.6688C31.6811 36.8387 31.9899 36.919 32.2113 36.9582C32.3241 36.9782 32.42 36.9886 32.4912 36.994C32.527 36.9967 32.557 36.9982 32.5802 36.999L32.61 36.9998L32.621 37L32.6255 37L32.6275 37L32.6285 37C32.6289 37 32.6294 37 32.6294 36.0551V37H34.3705C34.9612 37 35.4633 36.8402 35.8699 36.552C36.2708 36.2677 36.5271 35.8954 36.6886 35.5518C36.8483 35.212 36.9238 34.8835 36.9607 34.6481C36.9795 34.5281 36.9893 34.426 36.9943 34.3503C36.9969 34.3122 36.9983 34.2804 36.9991 34.2557L36.9998 34.2239L37 34.2122L37 34.2074L37 34.2053L37 34.2043C37 34.2039 37 34.2034 36.1116 34.2034Z" fill="#154E2F"/>
<path fill-rule="evenodd" clip-rule="evenodd" d="M35.9186 1.04664C34.5305 -0.350818 32.27 -0.348877 30.8843 1.05246C30.8835 1.05334 30.8826 1.05421 30.8817 1.05508L14.7728 17.1288C14.6631 17.2383 14.5833 17.3742 14.5411 17.5234L13.0343 22.8476C12.9449 23.1633 13.0332 23.5027 13.265 23.7347C13.4967 23.9668 13.8358 24.0551 14.1512 23.9657L19.4692 22.4572C19.6177 22.415 19.753 22.3355 19.8622 22.2262L35.9763 6.09411L35.9763 6.09413L35.9813 6.08903C37.3644 4.68229 37.3349 2.41722 35.9186 1.04664ZM34.64 2.32793C33.96 1.63887 32.8487 1.63887 32.1687 2.32793L32.1638 2.33292L32.1638 2.3329L16.2173 18.2446L15.2164 21.7811L18.7495 20.7789L34.6942 4.81623C35.3706 4.12581 35.3542 3.015 34.6569 2.34468L34.6397 2.32815L34.64 2.32793Z" fill="#154E2F"/>
</svg>
