<svg width="40" height="40" viewBox="0 0 40 40" fill="none" xmlns="http://www.w3.org/2000/svg">
<path d="M2.90698 19.5727C2.90698 13.1264 2.90698 9.90347 4.90948 7.90082C6.91214 5.89832 10.1351 5.89832 16.5814 5.89832H23.4185C29.8646 5.89832 33.0879 5.89832 35.0903 7.90082C37.0929 9.90347 37.0929 13.1264 37.0929 19.5727V22.9913C37.0929 29.4374 37.0929 32.6607 35.0904 34.6632C33.0879 36.6657 29.8646 36.6657 23.4185 36.6657H16.5814C10.1351 36.6657 6.91214 36.6657 4.90948 34.6632C2.90698 32.6607 2.90698 29.4374 2.90698 22.9913V19.5727Z" stroke="#15394E" stroke-width="2"/>
<path d="M11.4534 5.89829V3.33423" stroke="#15394E" stroke-width="2" stroke-linecap="round"/>
<path d="M28.5466 5.89829V3.33423" stroke="#15394E" stroke-width="2" stroke-linecap="round"/>
<path d="M3.76147 14.4447H36.2384" stroke="#15394E" stroke-width="2" stroke-linecap="round"/>
<path d="M30.2558 28.1192C30.2558 29.0632 29.4906 29.8284 28.5465 29.8284C27.6025 29.8284 26.8372 29.0632 26.8372 28.1192C26.8372 27.1751 27.6025 26.4098 28.5465 26.4098C29.4906 26.4098 30.2558 27.1751 30.2558 28.1192Z" fill="#15394E"/>
<path d="M30.2558 21.282C30.2558 22.2261 29.4906 22.9912 28.5465 22.9912C27.6025 22.9912 26.8372 22.2261 26.8372 21.282C26.8372 20.3379 27.6025 19.5726 28.5465 19.5726C29.4906 19.5726 30.2558 20.3379 30.2558 21.282Z" fill="#15394E"/>
<path d="M21.7094 28.1192C21.7094 29.0632 20.9441 29.8284 20 29.8284C19.0559 29.8284 18.2908 29.0632 18.2908 28.1192C18.2908 27.1751 19.0559 26.4098 20 26.4098C20.9441 26.4098 21.7094 27.1751 21.7094 28.1192Z" fill="#15394E"/>
<path d="M21.7094 21.282C21.7094 22.2261 20.9441 22.9912 20 22.9912C19.0559 22.9912 18.2908 22.2261 18.2908 21.282C18.2908 20.3379 19.0559 19.5726 20 19.5726C20.9441 19.5726 21.7094 20.3379 21.7094 21.282Z" fill="#15394E"/>
<path d="M13.1627 28.1192C13.1627 29.0632 12.3974 29.8284 11.4534 29.8284C10.5093 29.8284 9.74414 29.0632 9.74414 28.1192C9.74414 27.1751 10.5095 26.4098 11.4534 26.4098C12.3973 26.4098 13.1627 27.1751 13.1627 28.1192Z" fill="#15394E"/>
<path d="M13.1627 21.282C13.1627 22.2261 12.3974 22.9912 11.4534 22.9912C10.5093 22.9912 9.74414 22.2261 9.74414 21.282C9.74414 20.3379 10.5095 19.5726 11.4534 19.5726C12.3973 19.5726 13.1627 20.3379 13.1627 21.282Z" fill="#15394E"/>
</svg>
