<svg width="38" height="38" viewBox="0 0 38 38" fill="none" xmlns="http://www.w3.org/2000/svg">
<g clip-path="url(#clip0_52_511)">
<path fill-rule="evenodd" clip-rule="evenodd" d="M0.791667 0C1.22889 0 1.58333 0.354441 1.58333 0.791667V36.4167H37.2083C37.6456 36.4167 38 36.7711 38 37.2083C38 37.6456 37.6456 38 37.2083 38H1.58333C1.16341 38 0.760681 37.8332 0.463748 37.5363C0.166814 37.2393 0 36.8366 0 36.4167V0.791667C0 0.354441 0.354441 0 0.791667 0Z" fill="#154E4E"/>
<path fill-rule="evenodd" clip-rule="evenodd" d="M9.64209 23.8859C10.236 23.292 11.0414 22.9584 11.8813 22.9584C12.7211 22.9584 13.5266 23.292 14.1204 23.8859C14.7143 24.4797 15.0479 25.2852 15.0479 26.125C15.0479 26.9649 14.7143 27.7703 14.1204 28.3642C13.5266 28.9581 12.7211 29.2917 11.8813 29.2917C11.0414 29.2917 10.236 28.9581 9.64209 28.3642C9.04823 27.7703 8.7146 26.9649 8.7146 26.125C8.7146 25.2852 9.04823 24.4797 9.64209 23.8859ZM11.8813 24.5417C11.4613 24.5417 11.0586 24.7085 10.7617 25.0055C10.4647 25.3024 10.2979 25.7051 10.2979 26.125C10.2979 26.545 10.4647 26.9477 10.7617 27.2446C11.0586 27.5416 11.4613 27.7084 11.8813 27.7084C12.3012 27.7084 12.7039 27.5416 13.0009 27.2446C13.2978 26.9477 13.4646 26.545 13.4646 26.125C13.4646 25.7051 13.2978 25.3024 13.0009 25.0055C12.7039 24.7085 12.3012 24.5417 11.8813 24.5417Z" fill="#154E4E"/>
<path fill-rule="evenodd" clip-rule="evenodd" d="M33.7316 4.29759C34.0759 4.56709 34.1365 5.06467 33.867 5.40896L27.4134 13.6534C27.1439 13.9977 26.6463 14.0583 26.302 13.7888C25.9577 13.5193 25.8971 13.0217 26.1666 12.6774L32.6203 4.43299C32.8898 4.08871 33.3874 4.02808 33.7316 4.29759Z" fill="#154E4E"/>
<path fill-rule="evenodd" clip-rule="evenodd" d="M14.9879 11.5487C15.1349 11.137 15.5878 10.9223 15.9996 11.0692L23.3114 13.6786C23.7232 13.8255 23.9379 14.2785 23.791 14.6902C23.644 15.102 23.1911 15.3167 22.7793 15.1698L15.4675 12.5604C15.0557 12.4135 14.841 11.9605 14.9879 11.5487Z" fill="#154E4E"/>
<path fill-rule="evenodd" clip-rule="evenodd" d="M12.1163 11.9067C12.3402 12.2823 12.2172 12.7682 11.8417 12.9921L1.20323 19.3333C0.827668 19.5572 0.341732 19.4342 0.117867 19.0586C-0.105997 18.6831 0.0169821 18.1971 0.392549 17.9733L11.031 11.632C11.4065 11.4082 11.8925 11.5311 12.1163 11.9067Z" fill="#154E4E"/>
<path fill-rule="evenodd" clip-rule="evenodd" d="M33.4764 20.5984C33.692 20.9788 33.5583 21.4619 33.1779 21.6775L26.2033 25.6295C25.8229 25.845 25.3398 25.7114 25.1243 25.331C24.9087 24.9506 25.0424 24.4675 25.4228 24.2519L32.3973 20.2999C32.7778 20.0844 33.2609 20.218 33.4764 20.5984Z" fill="#154E4E"/>
<path fill-rule="evenodd" clip-rule="evenodd" d="M13.4646 26.125C13.4646 25.6878 13.819 25.3334 14.2563 25.3334H21.3813C21.8185 25.3334 22.1729 25.6878 22.1729 26.125C22.1729 26.5623 21.8185 26.9167 21.3813 26.9167H14.2563C13.819 26.9167 13.4646 26.5623 13.4646 26.125Z" fill="#154E4E"/>
<path fill-rule="evenodd" clip-rule="evenodd" d="M10.5047 26.9046C10.744 27.2706 10.6412 27.7612 10.2753 28.0004L1.23128 33.9126C0.865315 34.1518 0.3747 34.0491 0.135463 33.6831C-0.103774 33.3172 -0.00103846 32.8265 0.364929 32.5873L9.40893 26.6751C9.77489 26.4359 10.2655 26.5386 10.5047 26.9046Z" fill="#154E4E"/>
<path fill-rule="evenodd" clip-rule="evenodd" d="M11.2256 8.84412C11.8195 8.25026 12.6249 7.91663 13.4648 7.91663C14.3046 7.91663 15.1101 8.25026 15.7039 8.84412C16.2978 9.43799 16.6314 10.2434 16.6314 11.0833C16.6314 11.9231 16.2978 12.7286 15.7039 13.3225C15.1101 13.9163 14.3046 14.25 13.4648 14.25C12.6249 14.25 11.8195 13.9163 11.2256 13.3225C10.6317 12.7286 10.2981 11.9231 10.2981 11.0833C10.2981 10.2434 10.6317 9.43799 11.2256 8.84412ZM13.4648 9.49996C13.0448 9.49996 12.6421 9.66677 12.3452 9.96371C12.0482 10.2606 11.8814 10.6634 11.8814 11.0833C11.8814 11.5032 12.0482 11.9059 12.3452 12.2029C12.6421 12.4998 13.0448 12.6666 13.4648 12.6666C13.8847 12.6666 14.2874 12.4998 14.5843 12.2029C14.8813 11.9059 15.0481 11.5032 15.0481 11.0833C15.0481 10.6634 14.8813 10.2606 14.5843 9.96371C14.2874 9.66677 13.8847 9.49996 13.4648 9.49996Z" fill="#154E4E"/>
<path fill-rule="evenodd" clip-rule="evenodd" d="M23.1006 12.8025C23.6945 12.2086 24.4999 11.875 25.3398 11.875C26.1796 11.875 26.9851 12.2086 27.5789 12.8025C28.1728 13.3964 28.5064 14.2018 28.5064 15.0417C28.5064 15.4575 28.4245 15.8693 28.2654 16.2535C28.1062 16.6377 27.873 16.9868 27.5789 17.2808C27.2849 17.5749 26.9358 17.8081 26.5516 17.9673C26.1674 18.1264 25.7556 18.2083 25.3398 18.2083C24.9239 18.2083 24.5121 18.1264 24.1279 17.9673C23.7437 17.8081 23.3946 17.5749 23.1006 17.2808C22.8065 16.9868 22.5733 16.6377 22.4141 16.2535C22.255 15.8693 22.1731 15.4575 22.1731 15.0417C22.1731 14.2018 22.5067 13.3964 23.1006 12.8025ZM25.3398 13.4583C24.9198 13.4583 24.5171 13.6251 24.2202 13.9221C23.9232 14.219 23.7564 14.6217 23.7564 15.0417C23.7564 15.2496 23.7974 15.4555 23.877 15.6476C23.9565 15.8397 24.0732 16.0142 24.2202 16.1613C24.3672 16.3083 24.5417 16.4249 24.7338 16.5045C24.9259 16.584 25.1318 16.625 25.3398 16.625C25.5477 16.625 25.7536 16.584 25.9457 16.5045C26.1378 16.4249 26.3123 16.3083 26.4593 16.1613C26.6064 16.0142 26.723 15.8397 26.8026 15.6476C26.8821 15.4555 26.9231 15.2496 26.9231 15.0417C26.9231 14.6217 26.7563 14.219 26.4593 13.9221C26.1624 13.6251 25.7597 13.4583 25.3398 13.4583Z" fill="#154E4E"/>
<path fill-rule="evenodd" clip-rule="evenodd" d="M32.6006 0.927495C33.1945 0.33363 33.9999 0 34.8398 0C35.6796 0 36.4851 0.333629 37.0789 0.927495C37.6728 1.52136 38.0064 2.32682 38.0064 3.16667C38.0064 4.00652 37.6728 4.81197 37.0789 5.40584C36.4851 5.9997 35.6796 6.33333 34.8398 6.33333C33.9999 6.33333 33.1945 5.9997 32.6006 5.40584C32.0067 4.81197 31.6731 4.00652 31.6731 3.16667C31.6731 2.32681 32.0067 1.52136 32.6006 0.927495ZM34.8398 1.58333C34.4198 1.58333 34.0171 1.75015 33.7202 2.04708C33.4232 2.34401 33.2564 2.74674 33.2564 3.16667C33.2564 3.58659 33.4232 3.98932 33.7202 4.28625C34.0171 4.58319 34.4198 4.75 34.8398 4.75C35.2597 4.75 35.6624 4.58318 35.9593 4.28625C36.2563 3.98932 36.4231 3.58659 36.4231 3.16667C36.4231 2.74674 36.2563 2.34401 35.9593 2.04708C35.6624 1.75015 35.2597 1.58333 34.8398 1.58333Z" fill="#154E4E"/>
<path fill-rule="evenodd" clip-rule="evenodd" d="M32.6006 17.5525C33.1945 16.9586 33.9999 16.625 34.8398 16.625C35.6796 16.625 36.4851 16.9586 37.0789 17.5525C37.6728 18.1464 38.0064 18.9518 38.0064 19.7917C38.0064 20.6315 37.6728 21.437 37.0789 22.0308C36.4851 22.6247 35.6796 22.9583 34.8398 22.9583C33.9999 22.9583 33.1945 22.6247 32.6006 22.0308C32.0067 21.437 31.6731 20.6315 31.6731 19.7917C31.6731 18.9518 32.0067 18.1464 32.6006 17.5525ZM34.8398 18.2083C34.4198 18.2083 34.0171 18.3751 33.7202 18.6721C33.4232 18.969 33.2564 19.3717 33.2564 19.7917C33.2564 20.2116 33.4232 20.6143 33.7202 20.9113C34.0171 21.2082 34.4198 21.375 34.8398 21.375C35.2597 21.375 35.6624 21.2082 35.9593 20.9113C36.2563 20.6143 36.4231 20.2116 36.4231 19.7917C36.4231 19.3717 36.2563 18.969 35.9593 18.6721C35.6624 18.3751 35.2597 18.2083 34.8398 18.2083Z" fill="#154E4E"/>
<path fill-rule="evenodd" clip-rule="evenodd" d="M21.5171 23.8859C22.111 23.292 22.9164 22.9584 23.7563 22.9584C24.5961 22.9584 25.4016 23.292 25.9954 23.8859C26.5893 24.4797 26.9229 25.2852 26.9229 26.125C26.9229 26.5409 26.841 26.9527 26.6819 27.3369C26.5227 27.7211 26.2895 28.0702 25.9954 28.3642C25.7014 28.6583 25.3523 28.8915 24.9681 29.0507C24.5839 29.2098 24.1721 29.2917 23.7563 29.2917C23.3404 29.2917 22.9286 29.2098 22.5444 29.0507C22.1602 28.8915 21.8111 28.6583 21.5171 28.3642C21.223 28.0702 20.9898 27.7211 20.8306 27.3369C20.6715 26.9527 20.5896 26.5409 20.5896 26.125C20.5896 25.2852 20.9232 24.4797 21.5171 23.8859ZM23.7563 24.5417C23.3363 24.5417 22.9336 24.7085 22.6367 25.0055C22.3397 25.3024 22.1729 25.7051 22.1729 26.125C22.1729 26.333 22.2139 26.5389 22.2935 26.731C22.373 26.9231 22.4897 27.0976 22.6367 27.2446C22.7837 27.3917 22.9583 27.5083 23.1504 27.5878C23.3425 27.6674 23.5483 27.7084 23.7563 27.7084C23.9642 27.7084 24.1701 27.6674 24.3622 27.5878C24.5543 27.5083 24.7288 27.3916 24.8759 27.2446C25.0229 27.0976 25.1395 26.9231 25.2191 26.731C25.2986 26.5389 25.3396 26.333 25.3396 26.125C25.3396 25.7051 25.1728 25.3024 24.8759 25.0055C24.5789 24.7085 24.1762 24.5417 23.7563 24.5417Z" fill="#154E4E"/>
</g>
<defs>
<clipPath id="clip0_52_511">
<rect width="38" height="38" fill="white"/>
</clipPath>
</defs>
</svg>
