<svg width="165" height="31" viewBox="0 0 165 31" fill="none" xmlns="http://www.w3.org/2000/svg">
<path d="M10.0469 22.8281C10.0469 24.2656 10.1615 25.2604 10.3906 25.8125C10.6198 26.3646 11.1094 26.7292 11.8594 26.9062C12.6094 27.0729 13.9271 27.1667 15.8125 27.1875C17.1667 27.1875 18.2344 27.0729 19.0156 26.8438C19.7969 26.6146 20.5833 26.0885 21.375 25.2656C21.8958 24.6406 22.3281 24.1667 22.6719 23.8438C23.0156 23.5104 23.4167 23.3438 23.875 23.3438C24.2396 23.3438 24.5625 23.474 24.8438 23.7344C25.1354 23.9844 25.2812 24.2812 25.2812 24.625C25.2812 25.3229 25.0052 26.5156 24.4531 28.2031C24.2135 29.0052 23.9479 29.5052 23.6562 29.7031C23.3646 29.901 22.776 30 21.8906 30H2.75C1.46875 30 0.828125 29.5521 0.828125 28.6562C0.828125 28.3333 0.895833 28.1094 1.03125 27.9844C1.17708 27.849 1.43229 27.6667 1.79688 27.4375L2.23438 27.1875C2.70312 26.8854 2.9375 26.1823 2.9375 25.0781V6.39062C2.9375 5.23438 2.70312 4.50521 2.23438 4.20312L1.79688 4.01562C1.15104 3.61979 0.828125 3.19271 0.828125 2.73438C0.828125 2.27604 1.02083 1.9375 1.40625 1.71875C1.80208 1.5 2.25 1.39062 2.75 1.39062H20.9844C22.099 1.39062 22.8281 1.5625 23.1719 1.90625C23.599 2.4375 23.8125 3.67188 23.8125 5.60938C23.8125 6.72396 23.3438 7.28125 22.4062 7.28125C21.8958 7.28125 21.2969 6.89583 20.6094 6.125C19.8698 5.26042 19.0573 4.72917 18.1719 4.53125C17.3385 4.3125 16.0365 4.20312 14.2656 4.20312C12.5677 4.20312 11.4844 4.3125 11.0156 4.53125C10.3698 4.73958 10.0469 5.125 10.0469 5.6875V12.9062H15.9375C16.7188 12.9062 17.2604 12.8281 17.5625 12.6719C17.875 12.5052 18.2031 12.2708 18.5469 11.9688C18.901 11.6562 19.2448 11.5 19.5781 11.5C20.5156 11.5 20.9844 12.3958 20.9844 14.1875C20.9844 15.2708 20.8958 16.0885 20.7188 16.6406C20.5417 17.1823 20.1615 17.4531 19.5781 17.4531C19.224 17.4531 18.8594 17.3021 18.4844 17C18.1198 16.6979 17.7969 16.474 17.5156 16.3281C17.2344 16.1823 16.7083 16.1094 15.9375 16.1094H10.0469V22.8281ZM41.1094 8.5C41.1094 7.13542 41.0677 6.15104 40.9844 5.54688C40.849 4.99479 40.4635 4.52604 39.8281 4.14062C39.1927 3.78646 38.875 3.42708 38.875 3.0625C38.875 2.61458 39.0833 2.30208 39.5 2.125C39.9271 1.94792 40.5052 1.76562 41.2344 1.57812C43.5781 0.817708 45.1146 0.4375 45.8438 0.4375C46.5208 0.4375 46.9531 0.75 47.1406 1.375C47.3385 2 47.4375 2.96354 47.4375 4.26562V24.625C47.4375 25.7292 47.5052 26.4531 47.6406 26.7969C47.7656 27.0469 48.0417 27.3021 48.4688 27.5625C49.1562 27.875 49.5 28.2604 49.5 28.7188C49.5 29.2708 49.3073 29.625 48.9219 29.7812C48.5469 29.9271 48.0312 30 47.375 30H43.4688C42.5625 30 42.0052 29.849 41.7969 29.5469C41.599 29.2448 41.4531 28.5833 41.3594 27.5625C40.1615 29.5729 38.2448 30.5781 35.6094 30.5781C32.9948 30.5781 30.8333 29.6615 29.125 27.8281C27.4271 25.9844 26.5781 23.724 26.5781 21.0469C26.5781 19.1719 27 17.4635 27.8438 15.9219C28.6979 14.3698 29.8802 13.151 31.3906 12.2656C32.9115 11.3698 34.6146 10.9219 36.5 10.9219C38.1042 10.9219 39.6406 11.349 41.1094 12.2031V8.5ZM41.1094 17.8438C41.1094 16.5833 40.8333 15.6198 40.2812 14.9531C39.6146 14.151 38.7396 13.75 37.6562 13.75C36.1042 13.75 34.9896 14.4844 34.3125 15.9531C33.6354 17.4115 33.2969 19.0208 33.2969 20.7812C33.2969 22.5104 33.6094 24.0521 34.2344 25.4062C34.8594 26.7604 35.9323 27.4375 37.4531 27.4375C38.7969 27.4375 39.8021 26.9062 40.4688 25.8438C40.8958 25.1771 41.1094 24.2396 41.1094 23.0312V17.8438ZM52.375 16.9375C52.375 16.0312 52.3229 15.4167 52.2188 15.0938C52.125 14.7708 51.8958 14.4896 51.5312 14.25C51.0625 13.9375 50.8281 13.599 50.8281 13.2344C50.8281 12.8594 51.0417 12.5625 51.4688 12.3438C51.9375 12.0208 53.2188 11.6562 55.3125 11.25C55.4167 11.0312 55.8646 10.9219 56.6562 10.9219C57.5625 10.9219 58.1406 11.1927 58.3906 11.7344C58.6406 12.2656 58.7656 13.0625 58.7656 14.125V23.0312C58.7656 24.3958 58.9167 25.4635 59.2188 26.2344C59.5312 26.9948 60.2552 27.375 61.3906 27.375C62.526 27.375 63.4844 26.9062 64.2656 25.9688C64.7344 25.4167 64.9688 24.4115 64.9688 22.9531V16.9375C64.9688 16.1562 64.9219 15.5938 64.8281 15.25C64.7344 14.8958 64.4844 14.5625 64.0781 14.25C63.651 13.9062 63.4375 13.5677 63.4375 13.2344C63.4375 12.8281 63.6302 12.5312 64.0156 12.3438C64.5573 12.0104 65.8385 11.6458 67.8594 11.25C68.7656 11.0729 69.3594 10.9844 69.6406 10.9844C70.4948 10.9844 71.0521 11.2865 71.3125 11.8906V24.625C71.3125 25.7292 71.375 26.4531 71.5 26.7969C71.6562 27.0885 71.9583 27.3438 72.4062 27.5625C73.0417 27.8958 73.3594 28.2812 73.3594 28.7188C73.3594 29.2708 73.1667 29.625 72.7812 29.7812C72.4062 29.9271 71.8958 30 71.25 30H67.8594C66.9427 30 66.3438 29.849 66.0625 29.5469C65.7812 29.2448 65.5677 28.6042 65.4219 27.625C63.5781 29.5938 61.3594 30.5781 58.7656 30.5781C56.2344 30.5781 54.3594 29.5938 53.1406 27.625C52.6302 26.9688 52.375 25.5625 52.375 23.4062V16.9375ZM86.7969 27.25H86.9219C88.5885 27.25 90.0833 26.5885 91.4062 25.2656C92.0312 24.6198 92.5625 24.2969 93 24.2969C93.3229 24.2969 93.5938 24.4167 93.8125 24.6562C94.0417 24.8958 94.1562 25.1823 94.1562 25.5156C94.1562 26.401 93.4323 27.4062 91.9844 28.5312C89.8281 29.8958 87.6927 30.5781 85.5781 30.5781C83.7031 30.5781 81.9583 30.1875 80.3438 29.4062C78.7292 28.6146 77.4479 27.4948 76.5 26.0469C75.5521 24.5885 75.0781 22.8958 75.0781 20.9688C75.0781 18.9688 75.5469 17.2083 76.4844 15.6875C77.4219 14.1667 78.7031 12.9948 80.3281 12.1719C81.9635 11.3385 83.7552 10.9219 85.7031 10.9219C86.6719 10.9219 87.7865 11.0729 89.0469 11.375C90.3073 11.6667 91.3958 12.1406 92.3125 12.7969C93.2396 13.4427 93.7031 14.25 93.7031 15.2188C93.7031 15.8542 93.4896 16.3646 93.0625 16.75C92.6354 17.1354 92.1042 17.3281 91.4688 17.3281C90.8229 17.3281 90.3125 17.1875 89.9375 16.9062C89.5729 16.6146 89.1615 16.1719 88.7031 15.5781C88.2552 14.974 87.8281 14.5208 87.4219 14.2188C87.026 13.9062 86.4948 13.75 85.8281 13.75C84.4323 13.75 83.4271 14.4948 82.8125 15.9844C82.1979 17.4635 81.8594 19.0833 81.7969 20.8438H81.875C81.875 22.5625 82.2865 24.0625 83.1094 25.3438C83.9427 26.6146 85.1719 27.25 86.7969 27.25ZM114.656 24.625C114.656 25.7292 114.724 26.4531 114.859 26.7969C114.984 27.0677 115.26 27.3229 115.688 27.5625C116.323 27.8542 116.641 28.2396 116.641 28.7188C116.641 29.2708 116.458 29.625 116.094 29.7812C115.729 29.9271 115.229 30 114.594 30H110.688C109.74 30 109.156 29.849 108.938 29.5469C108.729 29.2344 108.609 28.5729 108.578 27.5625C107.339 29.5729 105.312 30.5781 102.5 30.5781C100.562 30.5781 98.901 30.0469 97.5156 28.9844C96.1406 27.9115 95.4531 26.4375 95.4531 24.5625C95.4531 22.8542 96.0521 21.4844 97.25 20.4531C98.4583 19.4115 99.9219 18.6823 101.641 18.2656C103.359 17.849 105.073 17.6406 106.781 17.6406H108.125C108.125 16.401 107.818 15.4115 107.203 14.6719C106.589 13.9219 105.682 13.5469 104.484 13.5469C103.953 13.5469 103.505 13.651 103.141 13.8594C102.786 14.0677 102.385 14.3802 101.938 14.7969C101.49 15.2031 101.073 15.5156 100.688 15.7344C100.312 15.9427 99.849 16.0469 99.2969 16.0469C98.6302 16.0469 98.0573 15.8906 97.5781 15.5781C97.1094 15.2656 96.875 14.7812 96.875 14.125C96.875 12.9688 97.8073 12.1458 99.6719 11.6562C101.547 11.1667 103.302 10.9219 104.938 10.9219C107.625 10.9219 109.797 11.3958 111.453 12.3438C113.589 13.5729 114.656 15.6198 114.656 18.4844V24.625ZM107.625 20.0781C106.094 20.0781 104.781 20.4635 103.688 21.2344C102.594 21.9948 102.047 23.1042 102.047 24.5625C102.047 25.3333 102.26 25.9948 102.688 26.5469C103.125 27.099 103.724 27.375 104.484 27.375C105.641 27.375 106.641 26.7552 107.484 25.5156C108.047 24.6198 108.328 23.2344 108.328 21.3594V20.0781H107.625ZM126.656 24.2344C126.656 25.2344 126.786 25.9427 127.047 26.3594C127.307 26.776 127.901 26.9844 128.828 26.9844C129.682 26.9844 130.344 27.0729 130.812 27.25C131.292 27.4271 131.531 27.8542 131.531 28.5312C131.531 29.5104 130.656 30 128.906 30H123.531C122.24 30 121.37 29.8229 120.922 29.4688C120.484 29.1146 120.266 28.2865 120.266 26.9844V14.3125H119.484C118.714 14.3125 118.125 14.224 117.719 14.0469C117.323 13.8698 117.125 13.4479 117.125 12.7812C117.125 11.9896 117.656 11.5208 118.719 11.375C120.042 11.2188 120.917 10.8125 121.344 10.1562C121.74 9.53125 122.104 8.35938 122.438 6.64062C122.573 5.85938 122.771 5.33333 123.031 5.0625C123.302 4.79167 123.807 4.65625 124.547 4.65625C125.432 4.65625 125.984 4.76562 126.203 4.98438C126.422 5.19271 126.531 5.70312 126.531 6.51562V11.25H128.828C129.62 11.25 130.224 11.3333 130.641 11.5C131.057 11.6667 131.266 12.0938 131.266 12.7812C131.266 13.8021 130.479 14.3125 128.906 14.3125H126.656V24.2344ZM145.047 27.4375C146.807 27.4375 148.557 26.6719 150.297 25.1406C150.901 24.5365 151.438 24.2344 151.906 24.2344C152.177 24.2344 152.432 24.349 152.672 24.5781C152.922 24.7969 153.047 25.0469 153.047 25.3281C153.047 25.9427 152.698 26.599 152 27.2969C151.302 27.9948 150.589 28.5521 149.859 28.9688C147.964 30.0417 145.807 30.5781 143.391 30.5781C141.589 30.5781 139.88 30.2031 138.266 29.4531C136.661 28.7031 135.365 27.625 134.375 26.2188C133.385 24.8125 132.891 23.1927 132.891 21.3594C132.891 19.276 133.432 17.4427 134.516 15.8594C135.599 14.2656 137.042 13.0469 138.844 12.2031C140.656 11.349 142.578 10.9219 144.609 10.9219C146.661 10.9219 148.505 11.4062 150.141 12.375C151.786 13.3333 152.609 14.75 152.609 16.625C152.609 17.9271 152.083 19.0208 151.031 19.9062C149.99 20.7812 148.745 21.4583 147.297 21.9375C146.599 22.1458 145.901 22.3177 145.203 22.4531C144.505 22.5885 143.734 22.7188 142.891 22.8438C142.047 22.9688 141.083 23.1146 140 23.2812C140.26 24.5208 140.849 25.526 141.766 26.2969C142.693 27.0573 143.786 27.4375 145.047 27.4375ZM146.531 16.1719C146.531 15.401 146.333 14.7812 145.938 14.3125C145.552 13.8438 144.979 13.6094 144.219 13.6094C142.76 13.6094 141.625 14.3385 140.812 15.7969C140.01 17.2448 139.609 18.8646 139.609 20.6562C141.339 20.5312 142.922 20.1146 144.359 19.4062C145.807 18.6979 146.531 17.6198 146.531 16.1719Z" fill="white"/>
<path d="M160.594 30C159.333 30 158.344 29.6562 157.625 28.9688C156.917 28.2812 156.562 27.474 156.562 26.5469C156.562 25.6406 156.917 24.849 157.625 24.1719C158.333 23.4948 159.323 23.1562 160.594 23.1562C161.875 23.1562 162.865 23.4948 163.562 24.1719C164.271 24.849 164.625 25.6615 164.625 26.6094C164.625 27.5156 164.271 28.3073 163.562 28.9844C162.854 29.6615 161.865 30 160.594 30Z" fill="#35A8E7"/>
</svg>
