<svg width="22" height="22" viewBox="0 0 22 22" fill="none" xmlns="http://www.w3.org/2000/svg">
<path fill-rule="evenodd" clip-rule="evenodd" d="M12.8334 2.75016C12.8334 2.2439 13.2438 1.8335 13.75 1.8335H17.4167C18.1461 1.8335 18.8455 2.12323 19.3613 2.63895C19.877 3.15468 20.1667 3.85415 20.1667 4.5835V17.4168C20.1667 18.1462 19.877 18.8456 19.3613 19.3614C18.8455 19.8771 18.1461 20.1668 17.4167 20.1668H13.75C13.2438 20.1668 12.8334 19.7564 12.8334 19.2502C12.8334 18.7439 13.2438 18.3335 13.75 18.3335H17.4167C17.6598 18.3335 17.893 18.2369 18.0649 18.065C18.2368 17.8931 18.3334 17.6599 18.3334 17.4168V4.5835C18.3334 4.34038 18.2368 4.10722 18.0649 3.93531C17.893 3.76341 17.6598 3.66683 17.4167 3.66683H13.75C13.2438 3.66683 12.8334 3.25642 12.8334 2.75016Z" fill="#15394E"/>
<path fill-rule="evenodd" clip-rule="evenodd" d="M8.51849 5.76849C8.87647 5.4105 9.45687 5.4105 9.81485 5.76849L14.3982 10.3518C14.7562 10.7098 14.7562 11.2902 14.3982 11.6482L9.81485 16.2315C9.45687 16.5895 8.87647 16.5895 8.51849 16.2315C8.1605 15.8735 8.1605 15.2931 8.51849 14.9352L12.4536 11L8.51849 7.06485C8.1605 6.70687 8.1605 6.12647 8.51849 5.76849Z" fill="#15394E"/>
<path fill-rule="evenodd" clip-rule="evenodd" d="M1.83337 11.0002C1.83337 10.4939 2.24378 10.0835 2.75004 10.0835H13.75C14.2563 10.0835 14.6667 10.4939 14.6667 11.0002C14.6667 11.5064 14.2563 11.9168 13.75 11.9168H2.75004C2.24378 11.9168 1.83337 11.5064 1.83337 11.0002Z" fill="#15394E"/>
</svg>
