<svg width="16" height="12" viewBox="0 0 16 12" fill="none" xmlns="http://www.w3.org/2000/svg">
<path fill-rule="evenodd" clip-rule="evenodd" d="M1.88379 10.9398C1.60921 10.8585 1.35867 10.714 1.15332 10.5184C0.947968 10.3228 0.793831 10.0818 0.703912 9.81586C0.190094 8.44116 0.0378508 2.70085 1.02743 1.56765C1.35678 1.19901 1.82177 0.972053 2.32149 0.936031C4.97622 0.657376 13.1783 0.69453 14.1203 1.02892C14.3852 1.11283 14.6273 1.25418 14.8283 1.44239C15.0294 1.63059 15.1842 1.86077 15.2811 2.11567C15.8425 3.53682 15.8616 8.70124 15.205 10.0666C15.0308 10.4221 14.7393 10.71 14.3772 10.884C13.3876 11.367 3.19688 11.3578 1.88379 10.9398V10.9398ZM6.09901 8.2461L10.8566 5.83108L6.09901 3.39749V8.2461Z" fill="white"/>
</svg>
