<svg width="16" height="10" viewBox="0 0 16 10" fill="none" xmlns="http://www.w3.org/2000/svg">
<path d="M8.68781 9.89997C3.42622 9.89997 0.425096 6.2213 0.300049 0.0999756H2.93565C3.02222 4.59287 4.96526 6.49597 6.5043 6.88836V0.0999756H8.986V3.97485C10.5058 3.80808 12.1025 2.04232 12.6412 0.0999756H15.1229C14.9199 1.10733 14.5153 2.06113 13.9344 2.90173C13.3534 3.74232 12.6087 4.45162 11.7466 4.98526C12.7089 5.47286 13.5587 6.16302 14.2402 7.0102C14.9217 7.85737 15.4192 8.84229 15.7 9.89997H12.9683C12.7162 8.9813 12.2038 8.15894 11.4954 7.53595C10.787 6.91297 9.91408 6.51707 8.986 6.39787V9.89997H8.68781V9.89997Z" fill="white"/>
</svg>
