<svg width="41" height="30" viewBox="0 0 41 30" fill="none" xmlns="http://www.w3.org/2000/svg">
<path fill-rule="evenodd" clip-rule="evenodd" d="M20.4998 0C20.4998 0 20.5 0 20.5 0.929488L20.4999 1.85898L20.3637 1.85918C20.2739 1.85938 20.1415 1.85979 19.9718 1.8606C19.6324 1.86223 19.1436 1.86549 18.5474 1.87201C17.3546 1.88505 15.7334 1.91113 14.0179 1.96323C12.301 2.01538 10.4968 2.09339 8.93594 2.20976C7.35461 2.32765 6.09884 2.48021 5.42577 2.66301C4.74389 2.86141 4.12503 3.23967 3.63136 3.75987C3.1429 4.27457 2.79405 4.91024 2.61891 5.60425C2.07199 8.71529 1.80449 11.8709 1.81977 15.0318L1.81982 15.0422C1.80029 18.2218 2.06684 21.3964 2.61619 24.5259C2.80947 25.1926 3.16436 25.7989 3.64821 26.2883C4.14163 26.7875 4.7525 27.1482 5.42195 27.336C6.09409 27.5192 7.35161 27.6721 8.93594 27.7902C10.4968 27.9066 12.301 27.9846 14.0179 28.0368C15.7334 28.0889 17.3546 28.115 18.5474 28.128C19.1436 28.1345 19.6324 28.1378 19.9718 28.1394C20.1415 28.1402 20.2739 28.1406 20.3637 28.1408L20.4996 28.141L20.5 29.0705C20.5 30 20.4998 30 20.4998 30L20.3596 29.9998C20.2684 29.9996 20.1346 29.9992 19.9633 29.9984C19.6207 29.9967 19.1283 29.9934 18.528 29.9869C17.3277 29.9737 15.6944 29.9475 13.9639 29.8949C12.2349 29.8424 10.4016 29.7634 8.80363 29.6443C7.23111 29.5271 5.80958 29.3662 4.94954 29.1311L4.94449 29.1297C3.97233 28.8578 3.08521 28.3343 2.36883 27.6096C1.65246 26.885 1.13106 25.9837 0.854995 24.9929C0.846776 24.9634 0.839989 24.9335 0.834662 24.9033C0.260066 21.6474 -0.0190053 18.3442 0.00100416 15.0358C-0.0145581 11.7521 0.264493 8.47392 0.834655 5.24234C0.838251 5.22196 0.842513 5.2017 0.847433 5.18161C1.09784 4.15906 1.60782 3.22216 2.32586 2.46554C3.04391 1.70892 3.94459 1.15938 4.93693 0.872419L4.94954 0.868872C5.80958 0.633778 7.23111 0.472938 8.80363 0.355704C10.4016 0.236575 12.2349 0.157589 13.9639 0.105074C15.6944 0.052515 17.3277 0.0262601 18.528 0.0131362C19.1283 0.00657226 19.6207 0.00328854 19.9633 0.0016456C20.1346 0.000824102 20.2684 0.000412688 20.3596 0.000206704L20.4998 0ZM35.5742 27.337C34.9012 27.5198 33.6454 27.6724 32.0641 27.7902C30.5032 27.9066 28.699 27.9846 26.9821 28.0368C25.2666 28.0889 23.6454 28.115 22.4526 28.128C21.8564 28.1345 21.3676 28.1378 21.0282 28.1394C20.8585 28.1402 20.7261 28.1406 20.6363 28.1408L20.4996 28.141L20.5 29.0705C20.5 30 20.4998 30 20.4998 30L20.6404 29.9998C20.7316 29.9996 20.8654 29.9992 21.0367 29.9984C21.3793 29.9967 21.8717 29.9934 22.472 29.9869C23.6723 29.9737 25.3056 29.9475 27.0361 29.8949C28.7651 29.8424 30.5984 29.7634 32.1964 29.6443C33.7689 29.5271 35.1904 29.3662 36.0505 29.1311L36.0631 29.1276C37.0554 28.8406 37.9561 28.2911 38.6741 27.5345C39.3922 26.7778 39.9022 25.8409 40.1526 24.8184C40.1575 24.7983 40.1618 24.778 40.1654 24.7576C40.7311 21.5502 41.0102 18.2969 40.999 15.0378C41.0191 11.7292 40.74 8.42568 40.1653 5.16949C40.1617 5.14912 40.1575 5.12888 40.1526 5.1088C39.9022 4.08625 39.3922 3.14935 38.6741 2.39273C37.9561 1.63611 37.0554 1.08657 36.0631 0.799609C36.0525 0.796555 36.0419 0.793696 36.0312 0.791034C35.1784 0.578181 33.7635 0.43164 32.1906 0.32458C30.5943 0.215917 28.7622 0.143839 27.0338 0.095905C25.3039 0.047934 23.6711 0.0239691 22.4712 0.0119897C21.871 0.00599835 21.3788 0.00300117 21.0363 0.00150172C20.8651 0.000751913 20.7313 0.000376511 20.6402 0.000188532L20.4998 0C20.4998 0 20.5 0 20.5 0.929488L20.4999 1.85898L20.6365 1.85916C20.7264 1.85935 20.8588 1.85972 21.0286 1.86046C21.3681 1.86195 21.857 1.86492 22.4534 1.87088C23.6465 1.88279 25.2683 1.9066 26.9844 1.9542C28.7019 2.00183 30.5073 2.07309 32.0698 2.17945C33.6433 2.28656 34.9012 2.42535 35.5837 2.59297C36.2618 2.7921 36.8773 3.16927 37.3686 3.68706C37.8571 4.20177 38.206 4.83746 38.3811 5.53148C38.9323 8.66602 39.1998 11.8458 39.1802 15.0306L39.1802 15.0397C39.1913 18.1767 38.9238 21.3082 38.3811 24.3958C38.2059 25.0898 37.8571 25.7254 37.3686 26.2401C36.875 26.7603 36.2561 27.1386 35.5742 27.337Z" fill="#15394E"/>
<path fill-rule="evenodd" clip-rule="evenodd" d="M15.9748 9.43446C16.2422 9.26495 16.5764 9.24878 16.8583 9.39171L27.0983 14.5841C27.4078 14.741 27.6035 15.0636 27.6035 15.4167C27.6035 15.7698 27.4078 16.0924 27.0983 16.2494L16.8583 21.4417C16.5764 21.5847 16.2422 21.5685 15.9748 21.399C15.7074 21.2295 15.5447 20.9307 15.5447 20.6091V10.2244C15.5447 9.90275 15.7074 9.60398 15.9748 9.43446ZM17.3635 11.7231V19.1104L24.6479 15.4167L17.3635 11.7231Z" fill="#15394E"/>
</svg>
