<svg width="40" height="40" viewBox="0 0 40 40" fill="none" xmlns="http://www.w3.org/2000/svg">
<path d="M2.90698 20C2.90698 11.9421 2.90698 7.91339 5.41011 5.41011C7.91339 2.90698 11.9421 2.90698 20 2.90698C28.0576 2.90698 32.0865 2.90698 34.5896 5.41011C37.0929 7.91339 37.0929 11.9421 37.0929 20C37.0929 28.0576 37.0929 32.0865 34.5896 34.5896C32.0867 37.0929 28.0576 37.0929 20 37.0929C11.9421 37.0929 7.91339 37.0929 5.41011 34.5896C2.90698 32.0867 2.90698 28.0576 2.90698 20Z" stroke="#4C4E15" stroke-width="2"/>
<path d="M6.32568 25.1279H10.2596C11.6413 25.1279 12.3321 25.1279 12.9522 25.3803C13.0087 25.4034 13.0644 25.4278 13.1196 25.4539C13.7252 25.7392 14.193 26.2476 15.1285 27.2645L15.1891 27.3303C16.0646 28.2818 16.5022 28.7576 17.0616 29.0382C17.1663 29.0907 17.2737 29.1379 17.3835 29.1795C17.9685 29.4011 18.6149 29.4011 19.908 29.4011C21.1304 29.4011 21.7416 29.4011 22.3004 29.2009C22.4052 29.1636 22.508 29.1207 22.6088 29.0732C23.1455 28.8196 23.5777 28.3873 24.4419 27.5231L24.8346 27.1304C25.8227 26.1423 26.3168 25.6484 26.9451 25.3881C27.5733 25.1279 28.2721 25.1279 29.6694 25.1279H33.6744" stroke="#4C4E15" stroke-width="2" stroke-linecap="round"/>
<path d="M8.03479 25.128V22.5639C8.03479 21.148 9.18276 20 10.5989 20H29.401C30.8171 20 31.9651 21.148 31.9651 22.5639V25.128" stroke="#4C4E15" stroke-width="2" stroke-linecap="round"/>
<path d="M8.03479 23.4186V17.4361C8.03479 16.02 9.18276 14.8721 10.5989 14.8721H29.401C30.8171 14.8721 31.9651 16.02 31.9651 17.4361V23.4186" stroke="#4C4E15" stroke-width="2" stroke-linecap="round"/>
<path d="M8.03479 18.2905V12.308C8.03479 10.892 9.18276 9.74414 10.5989 9.74414H29.401C30.8171 9.74414 31.9651 10.892 31.9651 12.308V18.2905" stroke="#4C4E15" stroke-width="2" stroke-linecap="round"/>
</svg>
