<svg width="35" height="35" viewbox="0 0 35 35" fill="currentColor" xmlns="http://www.w3.org/2000/svg">
<path fill-rule="evenodd" clip-rule="evenodd" d="M17.5 3.64583C9.84856 3.64583 3.64583 9.84856 3.64583 17.5C3.64583 25.1514 9.84856 31.3542 17.5 31.3542C25.1514 31.3542 31.3542 25.1514 31.3542 17.5C31.3542 9.84856 25.1514 3.64583 17.5 3.64583ZM2.1875 17.5C2.1875 9.04314 9.04314 2.1875 17.5 2.1875C25.9569 2.1875 32.8125 9.04314 32.8125 17.5C32.8125 25.9569 25.9569 32.8125 17.5 32.8125C9.04314 32.8125 2.1875 25.9569 2.1875 17.5Z" />
<path fill-rule="evenodd" clip-rule="evenodd" d="M18.0156 11.1511C18.3004 11.4358 18.3004 11.8975 18.0156 12.1823L12.6979 17.5L18.0156 22.8177C18.3004 23.1025 18.3004 23.5642 18.0156 23.8489C17.7308 24.1337 17.2692 24.1337 16.9844 23.8489L11.1511 18.0156C10.8663 17.7308 10.8663 17.2692 11.1511 16.9844L16.9844 11.1511C17.2692 10.8663 17.7308 10.8663 18.0156 11.1511Z" />
<path fill-rule="evenodd" clip-rule="evenodd" d="M10.9375 17.4999C10.9375 17.0972 11.264 16.7708 11.6667 16.7708H23.3333C23.736 16.7708 24.0625 17.0972 24.0625 17.4999C24.0625 17.9026 23.736 18.2291 23.3333 18.2291H11.6667C11.264 18.2291 10.9375 17.9026 10.9375 17.4999Z" />
</svg>
