<svg width="35" height="35" viewbox="0 0 35 35" fill="currentColor" xmlns="http://www.w3.org/2000/svg">
<path fill-rule="evenodd" clip-rule="evenodd" d="M17.5 3.64583C9.84856 3.64583 3.64583 9.84856 3.64583 17.5C3.64583 25.1514 9.84856 31.3542 17.5 31.3542C25.1514 31.3542 31.3542 25.1514 31.3542 17.5C31.3542 9.84856 25.1514 3.64583 17.5 3.64583ZM2.1875 17.5C2.1875 9.04314 9.04314 2.1875 17.5 2.1875C25.9569 2.1875 32.8125 9.04314 32.8125 17.5C32.8125 25.9569 25.9569 32.8125 17.5 32.8125C9.04314 32.8125 2.1875 25.9569 2.1875 17.5Z" />
<path fill-rule="evenodd" clip-rule="evenodd" d="M16.9843 11.1511C17.2691 10.8663 17.7308 10.8663 18.0155 11.1511L23.8489 16.9844C24.1336 17.2692 24.1336 17.7308 23.8489 18.0156L18.0155 23.8489C17.7308 24.1337 17.2691 24.1337 16.9843 23.8489C16.6996 23.5642 16.6996 23.1025 16.9843 22.8177L22.3021 17.5L16.9843 12.1823C16.6996 11.8975 16.6996 11.4358 16.9843 11.1511Z" />
<path fill-rule="evenodd" clip-rule="evenodd" d="M10.9375 17.4999C10.9375 17.0972 11.264 16.7708 11.6667 16.7708H23.3333C23.736 16.7708 24.0625 17.0972 24.0625 17.4999C24.0625 17.9026 23.736 18.2291 23.3333 18.2291H11.6667C11.264 18.2291 10.9375 17.9026 10.9375 17.4999Z" />
</svg>
