<svg display="none" xmlns="http://www.w3.org/2000/svg">

<!-- svg ico-telegram -->
    <simbol id="svg-ico-telegram" viewbox="0 0 28 28">
        <g>
            <path d="M19.6 8.82158L17.4963 19.8046C17.4963 19.8046 17.2019 20.5661 16.3933 20.2009L11.5393 16.3468L11.5167 16.3355C12.1724 15.7258 17.2567 10.9919 17.4789 10.7773C17.8229 10.445 17.6094 10.2471 17.21 10.4982L9.6998 15.4371L6.8024 14.4276C6.8024 14.4276 6.34643 14.2596 6.30256 13.8944C6.25812 13.5286 6.8174 13.3308 6.8174 13.3308L18.6292 8.53229C18.6292 8.53229 19.6 8.09058 19.6 8.82158V8.82158Z" />
        </g>
    </simbol>

    <!-- svg ico-youtube -->
    <simbol id="svg-ico-youtube " viewbox="0 0 28 28">
        <g>
            <path fill-rule="evenodd" clip-rule="evenodd" d="M7.88379 18.9398C7.60921 18.8585 7.35867 18.714 7.15332 18.5184C6.94797 18.3228 6.79383 18.0818 6.70391 17.8159C6.19009 16.4412 6.03785 10.7009 7.02743 9.56765C7.35678 9.19901 7.82177 8.97205 8.32149 8.93603C10.9762 8.65738 19.1783 8.69453 20.1203 9.02892C20.3852 9.11283 20.6273 9.25418 20.8283 9.44239C21.0294 9.63059 21.1842 9.86077 21.2811 10.1157C21.8425 11.5368 21.8616 16.7012 21.205 18.0666C21.0308 18.4221 20.7393 18.71 20.3772 18.884C19.3876 19.367 9.19688 19.3578 7.88379 18.9398ZM12.099 16.2461L16.8566 13.8311L12.099 11.3975V16.2461Z" />
        </g>
    </simbol>

    <!-- svg ico-vk -->
    <simbol id="svg-ico-whatsapp" viewBox="0 0 15 15">
        <g>
  
<path d="M12.5488 2.4438C11.1659 1.06567 9.32195 0.300049 7.37561 0.300049C3.32927 0.300049 0.0512187 3.56672 0.0512187 7.59901C0.0512187 8.87505 0.409756 10.1511 1.02439 11.223L0 15L3.89268 13.9792C4.96829 14.5407 6.14634 14.8469 7.37561 14.8469C11.4219 14.8469 14.7 11.5803 14.7 7.54797C14.6488 5.65942 13.9317 3.82192 12.5488 2.4438ZM10.9098 10.2021C10.7561 10.6105 10.039 11.0188 9.68049 11.0698C9.37317 11.1209 8.96341 11.1209 8.55366 11.0188C8.29756 10.9167 7.93902 10.8146 7.52927 10.6105C5.68537 9.84484 4.50732 8.00734 4.40488 7.85422C4.30244 7.75213 3.63659 6.88442 3.63659 5.96567C3.63659 5.04692 4.09756 4.63859 4.25122 4.43442C4.40488 4.23026 4.60976 4.23026 4.76341 4.23026C4.86585 4.23026 5.01951 4.23026 5.12195 4.23026C5.22439 4.23026 5.37805 4.17922 5.53171 4.53651C5.68537 4.8938 6.0439 5.81255 6.09512 5.86359C6.14634 5.96567 6.14634 6.06776 6.09512 6.16984C6.0439 6.27192 5.99268 6.37401 5.89024 6.47609C5.7878 6.57817 5.68536 6.7313 5.63414 6.78234C5.53171 6.88442 5.42927 6.98651 5.53171 7.13963C5.63415 7.3438 5.99268 7.90526 6.5561 8.41567C7.27317 9.02817 7.83659 9.23234 8.04146 9.33442C8.24634 9.43651 8.34878 9.38547 8.45122 9.28338C8.55366 9.1813 8.9122 8.77297 9.01464 8.5688C9.11707 8.36463 9.27073 8.41567 9.42439 8.46672C9.57805 8.51776 10.5 8.97713 10.6537 9.07922C10.8585 9.1813 10.961 9.23234 11.0122 9.28338C11.0634 9.43651 11.0634 9.7938 10.9098 10.2021Z" />

        </g>
    </simbol>

    <!-- svg ico-vk -->
    <simbol id="svg-ico-vk" viewBox="0 0 28 28">
        <g>
            <rect width="28" height="28" rx="14" fill="#35A8E7"/>
            <path d="M14.6878 18.9C9.42622 18.9 6.4251 15.2213 6.30005 9.09998H8.93565C9.02222 13.5929 10.9653 15.496 12.5043 15.8884V9.09998H14.986V12.9748C16.5058 12.8081 18.1025 11.0423 18.6412 9.09998H21.1229C20.9199 10.1073 20.5153 11.0611 19.9344 11.9017C19.3534 12.7423 18.6087 13.4516 17.7466 13.9853C18.7089 14.4729 19.5587 15.163 20.2402 16.0102C20.9217 16.8574 21.4192 17.8423 21.7 18.9H18.9683C18.7162 17.9813 18.2038 17.1589 17.4954 16.536C16.787 15.913 15.9141 15.5171 14.986 15.3979V18.9H14.6878Z" />
        </g>
    </simbol>

    <!-- svg ico-youtube -->
    <simbol id="">
        <g></g>
    </simbol>

    <!-- svg ico-youtube -->
    <simbol id="">
        <g></g>
    </simbol>

    <!-- svg ico-youtube -->
    <simbol id="">
        <g></g>
    </simbol>

    <!-- svg ico-youtube -->
    <simbol id="">
        <g></g>
    </simbol>

    <!-- svg ico-youtube -->
    <simbol id="">
        <g></g>
    </simbol>

    <!-- svg ico-youtube -->
    <simbol id="">
        <g></g>
    </simbol>

    <!-- svg ico-youtube -->
    <simbol id="">
        <g></g>
    </simbol>



</svg>