<svg width="18" height="18" viewBox="0 0 18 18" fill="none" xmlns="http://www.w3.org/2000/svg">
<path d="M8.10329 1.10936C8.47013 0.366187 9.52987 0.366187 9.89671 1.10936L11.8576 5.08181C12.0031 5.37666 12.2843 5.58112 12.6096 5.62868L16.9962 6.26984C17.8161 6.38969 18.1429 7.39753 17.5493 7.97569L14.3768 11.0657C14.1409 11.2955 14.0333 11.6266 14.0889 11.9511L14.8374 16.3154C14.9775 17.1323 14.12 17.7553 13.3864 17.3695L9.46545 15.3075C9.17407 15.1543 8.82593 15.1543 8.53455 15.3075L4.61363 17.3695C3.88 17.7553 3.02245 17.1323 3.16257 16.3154L3.91109 11.9511C3.96675 11.6266 3.85908 11.2955 3.62321 11.0657L0.450678 7.97569C-0.142915 7.39753 0.183869 6.38968 1.00378 6.26984L5.39037 5.62868C5.71572 5.58112 5.99691 5.37666 6.14245 5.08181L8.10329 1.10936Z" fill="#35A8E7"/>
</svg>
